<svg xmlns="http://www.w3.org/2000/svg" viewBox="0 0 64 64">
  <rect x="4" y="12" width="56" height="40" rx="8" fill="#1d1d1f"/>
  <path fill="#ffffff" d="M33.8 21.1c-.1-1.9 1.5-3.4 2.9-3.5.2 2.1-1.9 3.6-2.9 3.5zm4.6 1.8c-1.3-.1-2.4.7-3 .7s-1.5-.7-2.6-.7c-1.3 0-2.5.8-3.2 2-1.4 2.4-.4 5.9.9 7.9.6.9 1.4 2 2.4 2 .9 0 1.3-.6 2.5-.6s1.5.6 2.5.6c1 0 1.7-1 2.3-1.9.7-1 .9-2 .9-2.1 0-.1-1.8-.7-1.8-2.7 0-1.7 1.4-2.6 1.5-2.6-.8-1.2-2-1.5-2.4-1.6z"/>
  <rect x="14" y="37" width="36" height="10" rx="1" fill="none" stroke="#ffffff" stroke-width="1.8"/>
  <line x1="19" y1="42" x2="45" y2="42" stroke="#ffffff" stroke-width="1.2" stroke-dasharray="1.5 1.5"/>
</svg>
